HIERARCHY
ROOT Hips
{
  OFFSET 40.8908 88.6266 -17.9885
  CHANNELS 6 Xposition Yposition Zposition Zrotation Xrotation Yrotation
  JOINT RightUpLeg
  {
    OFFSET -9 6.86154e-007 -3.19544e-009
    CHANNELS 6 Xposition Yposition Zposition Zrotation Xrotation Yrotation
    JOINT RightLowLeg
    {
      OFFSET 0.575 -51.4311 3.90177
      CHANNELS 6 Xposition Yposition Zposition Zrotation Xrotation Yrotation
      JOINT RightFoot
      {
        OFFSET -7.46079e-007 -43.5882 -3.90177
        CHANNELS 6 Xposition Yposition Zposition Zrotation Xrotation Yrotation
        End Site
        {
          OFFSET 4.66716e-007 -6.93413 15.0046
        }
      }
    }
  }
  JOINT Chest
  {
    OFFSET 1.23234e-007 14.8421 1.27319e-009
    CHANNELS 6 Xposition Yposition Zposition Zrotation Xrotation Yrotation
    JOINT Neck
    {
      OFFSET 0.51659 29.8236 6.51843
      CHANNELS 6 Xposition Yposition Zposition Zrotation Xrotation Yrotation
      JOINT Head
      {
        OFFSET 1.16803e-007 7.47049 6.44171e-007
        CHANNELS 6 Xposition Yposition Zposition Zrotation Xrotation Yrotation
        End Site
        {
          OFFSET -4.32676e-008 16.2908 2.16786e-007
        }
      }
    }
    JOINT RightCollar
    {
      OFFSET -6.11406 27.2248 4.23427
      CHANNELS 6 Xposition Yposition Zposition Zrotation Xrotation Yrotation
      JOINT RightUpArm
      {
        OFFSET -10.4566 2.3285 -0.910794
        CHANNELS 6 Xposition Yposition Zposition Zrotation Xrotation Yrotation
        JOINT RightLowArm
        {
          OFFSET -3.86856 -25.191 -1.74633
          CHANNELS 6 Xposition Yposition Zposition Zrotation Xrotation Yrotation
          JOINT RightHand
          {
            OFFSET -1.04759 -20.6242 1.75213
            CHANNELS 6 Xposition Yposition Zposition Zrotation Xrotation Yrotation
            End Site
            {
              OFFSET -2.03487e-006 -9.50367 -4.31372e-006
            }
          }
        }
      }
    }
    JOINT LeftCollar
    {
      OFFSET 6.64893 27.3161 3.27471
      CHANNELS 6 Xposition Yposition Zposition Zrotation Xrotation Yrotation
      JOINT LeftUpArm
      {
        OFFSET 10.8584 2.41798 -0.945791
        CHANNELS 6 Xposition Yposition Zposition Zrotation Xrotation Yrotation
        JOINT LeftLowArm
        {
          OFFSET 3.77631 -24.5904 -1.70468
          CHANNELS 6 Xposition Yposition Zposition Zrotation Xrotation Yrotation
          JOINT LeftHand
          {
            OFFSET 1.01026 -21.1231 1.74131
            CHANNELS 6 Xposition Yposition Zposition Zrotation Xrotation Yrotation
            End Site
            {
              OFFSET 1.17583e-006 -9.81266 -2.89439e-008
            }
          }
        }
      }
    }
  }
  JOINT LeftUpLeg
  {
    OFFSET 9 -3.38008e-006 -5.22997e-009
    CHANNELS 6 Xposition Yposition Zposition Zrotation Xrotation Yrotation
    JOINT LeftLowLeg
    {
      OFFSET -0.575 -51.431 3.90177
      CHANNELS 6 Xposition Yposition Zposition Zrotation Xrotation Yrotation
      JOINT LeftFoot
      {
        OFFSET 2.13082e-007 -43.5882 -3.90177
        CHANNELS 6 Xposition Yposition Zposition Zrotation Xrotation Yrotation
        End Site
        {
          OFFSET 7.44796e-007 -6.93413 15.0046
        }
      }
    }
  }
}
MOTION
Frames:	6
Frame Time:	0.0333333
30.723 96.6704 -30.725 2.11346 -0.801181 23.3324 -9 6.86154e-007 -3.1859e-009 -13.0235 -17.3077 -22.6232 0.575 -51.4311 3.90177 -3.02062 34.1256 -8.2297 -7.46079e-007 -43.5882 -3.90177 -3.43132 -9.26451 0.16484 1.23238e-007 14.8421 1.27319e-009 -0.459389 9.46939 -13.7407 0.51659 29.8236 6.51843 -0.33865 -26.0934 -5.15675 1.16803e-007 7.47049 6.44171e-007 4.23676 17.7574 -5.79841 -6.11406 27.2248 4.23427 -1.96452 7.32629 3.42623 -10.4566 2.3285 -0.910794 13.8122 -43.4132 46.8988 -3.86856 -25.191 -1.74633 60.5312 -79.053 124.363 -1.04759 -20.6242 1.75213 -31.6369 15.7583 -0.358228 6.64893 27.3161 3.27471 -2.94784 5.93879 -4.20517 10.8584 2.41798 -0.945791 -14.6014 -28.7815 -46.252 3.77631 -24.5904 -1.70468 29.0162 -14.2526 -11.7304 1.01026 -21.1231 1.74131 22.2362 -2.68207 2.78241 9 -3.38008e-006 -5.22264e-009 20.2807 7.07145 18.033 -0.575 -51.431 3.90177 -0.540864 21.0069 -12.8531 2.13082e-007 -43.5882 -3.90177 -8.46229 18.9954 2.31969 
32.0326 95.9407 -32.8121 1.97001 -0.610114 26.3606 -9 6.86154e-007 -3.18588e-009 -14.5753 -18.4819 -23.4798 0.575 -51.4311 3.90177 -4.04403 35.8267 -8.93034 -7.46079e-007 -43.5882 -3.90177 -3.03429 -9.15421 0.164143 1.23238e-007 14.8421 1.27319e-009 -0.21788 9.21701 -13.5652 0.51659 29.8236 6.51843 -0.14665 -25.4187 -6.11146 1.16803e-007 7.47049 6.44171e-007 3.74303 17.6954 -6.46546 -6.11406 27.2248 4.23427 -1.96452 7.32629 3.42623 -10.4566 2.3285 -0.910794 8.6321 -44.3975 33.98 -3.86856 -25.191 -1.74633 63.993 -77.598 126.966 -1.04759 -20.6242 1.75213 -33.5836 16.9965 -0.0199644 6.64893 27.3161 3.27471 -2.94784 5.93879 -4.20517 10.8584 2.41798 -0.945791 -15.1715 -27.7128 -46.5418 3.77631 -24.5904 -1.70468 30.8418 -13.3877 -11.1808 1.01026 -21.1231 1.74131 23.2844 -2.60165 2.93116 9 -3.38008e-006 -5.22262e-009 20.1501 6.5356 17.9323 -0.575 -51.431 3.90177 -1.13221 19.4095 -17.3774 2.13082e-007 -43.5882 -3.90177 -6.44606 18.2747 1.74235 
33.7045 95.1866 -35.1796 2.31213 -0.462533 29.4634 -9 6.86154e-007 -3.18587e-009 -17.1492 -19.1354 -24.9512 0.575 -51.4311 3.90177 -4.26077 37.1214 -6.54413 -7.46079e-007 -43.5882 -3.90177 -3.75379 -9.23428 0.167421 1.23238e-007 14.8421 1.27319e-009 -0.0248187 9.52755 -13.8025 0.51659 29.8236 6.51843 -0.259461 -24.8395 -6.90608 1.16803e-007 7.47049 6.44171e-007 3.40403 17.3805 -7.07236 -6.11406 27.2248 4.23427 -1.96452 7.32629 3.42623 -10.4566 2.3285 -0.910794 2.99002 -45.4634 19.462 -3.86856 -25.191 -1.74633 61.1874 -75.7183 123.231 -1.04759 -20.6242 1.75213 -34.667 17.6048 0.161067 6.64893 27.3161 3.27471 -2.94784 5.93879 -4.20517 10.8584 2.41798 -0.945791 -15.3092 -26.8708 -45.659 3.77631 -24.5904 -1.70468 31.7515 -13.4747 -10.9627 1.01026 -21.1231 1.74131 23.0828 -3.36311 3.002 9 -3.38008e-006 -5.22261e-009 19.1102 5.06057 17.1697 -0.575 -51.431 3.90177 -1.44066 20.2834 -20.7484 2.13082e-007 -43.5882 -3.90177 -2.20188 14.7864 0.581942 
35.0691 94.478 -37.4858 2.29821 -0.349066 30.8616 -9 6.86154e-007 -3.18586e-009 -17.9157 -20.6244 -23.773 0.575 -51.4311 3.90177 -4.69191 37.3368 0.937327 -7.46079e-007 -43.5882 -3.90177 -5.86125 -8.20685 0.228789 1.23238e-007 14.8421 1.27319e-009 0.183805 9.96723 -12.4392 0.51659 29.8236 6.51843 -0.118805 -25.3005 -7.68667 1.16803e-007 7.47049 6.44171e-007 3.04287 17.5982 -7.63568 -6.11406 27.2248 4.23427 -1.96452 7.32629 3.42623 -10.4566 2.3285 -0.910794 -2.826 -46.3567 4.50994 -3.86856 -25.191 -1.74633 55.4893 -73.5516 116.798 -1.04759 -20.6242 1.75213 -34.2259 18.0415 0.253509 6.64893 27.3161 3.27471 -2.94784 5.93879 -4.20517 10.8584 2.41798 -0.945791 -15.1335 -25.8726 -44.3989 3.77631 -24.5904 -1.70468 32.5989 -13.8826 -10.6229 1.01026 -21.1231 1.74131 22.167 -2.04234 2.69307 9 -3.38008e-006 -5.22259e-009 18.6261 3.24618 17.2431 -0.575 -51.431 3.90177 -2.03248 22.8985 -20.9248 2.13082e-007 -43.5882 -3.90177 1.88561 10.5451 -0.303836 
36.1989 93.7411 -39.3139 2.36401 -1.48219 31.7022 -9 6.86154e-007 -3.18584e-009 -17.1193 -20.8518 -21.2806 0.575 -51.4311 3.90177 -5.77729 37.3945 6.78382 -7.46079e-007 -43.5882 -3.90177 -7.57841 -7.9338 0.269822 1.23238e-007 14.8421 1.27319e-009 0.954122 11.3658 -11.0299 0.51659 29.8236 6.51843 -0.488642 -25.5089 -8.23317 1.16803e-007 7.47049 6.44171e-007 3.24332 17.4673 -8.22125 -6.11406 27.2248 4.23427 -1.96452 7.32629 3.42623 -10.4566 2.3285 -0.910794 -7.87466 -47.4972 -8.97675 -3.86856 -25.191 -1.74633 45.9797 -70.6577 108.839 -1.04759 -20.6242 1.75213 -36.0467 18.2282 0.376745 6.64893 27.3161 3.27471 -2.94784 5.93879 -4.20517 10.8584 2.41798 -0.945791 -14.7103 -24.5593 -42.6351 3.77631 -24.5904 -1.70468 33.7628 -14.3796 -10.2148 1.01026 -21.1231 1.74131 20.8142 -1.28464 2.40766 9 -3.38008e-006 -5.22257e-009 19.1171 2.55452 17.9698 -0.575 -51.431 3.90177 -2.8047 26.1556 -20.0731 2.13082e-007 -43.5882 -3.90177 5.91227 5.8191 -0.855465 
37.504 93.01 -41.2176 2.58887 -2.15435 34.1887 -9 6.86154e-007 -3.18583e-009 -18.2675 -20.3935 -21.4591 0.575 -51.4311 3.90177 -6.3854 37.7975 8.08215 -7.46079e-007 -43.5882 -3.90177 -7.58298 -7.04401 0.316817 1.23238e-007 14.8421 1.27319e-009 1.42671 12.2702 -11.7654 0.51659 29.8236 6.51843 -0.00638583 -25.4087 -8.5828 1.16803e-007 7.47049 6.44171e-007 2.60184 17.4626 -8.27442 -6.11406 27.2248 4.23427 -1.96452 7.32629 3.42623 -10.4566 2.3285 -0.910794 -12.0576 -48.4028 -20.0151 -3.86856 -25.191 -1.74633 33.9056 -67.0004 96.4175 -1.04759 -20.6242 1.75213 -36.3946 16.6534 -0.0332768 6.64893 27.3161 3.27471 -2.94784 5.93879 -4.20517 10.8584 2.41798 -0.945791 -14.4622 -23.1284 -40.9334 3.77631 -24.5904 -1.70468 34.7947 -14.7903 -10.1088 1.01026 -21.1231 1.74131 20.3489 -2.10771 2.43628 9 -3.38008e-006 -5.22255e-009 18.9805 1.04571 18.0978 -0.575 -51.431 3.90177 -3.13921 29.0721 -18.3531 2.13082e-007 -43.5882 -3.90177 10.3161 -0.109144 -1.00616 
